<?xml version="1.0" encoding="utf-8"?>
<!-- Generator: Adobe Illustrator 27.8.0, SVG Export Plug-In . SVG Version: 6.00 Build 0)  -->
<svg version="1.1" id="Calque_1" xmlns="http://www.w3.org/2000/svg" xmlns:xlink="http://www.w3.org/1999/xlink" x="0px" y="0px"
	 viewBox="0 0 47.5 47.5" style="enable-background:new 0 0 47.5 47.5;" xml:space="preserve">
<style type="text/css">
	.st0{fill:#E94E4F;}
	.st1{fill:#FFFFFF;}
</style>
<g>
	<circle class="st0" cx="23.8" cy="23.7" r="23.7"/>
	<g>
		<circle class="st1" cx="37.5" cy="34.9" r="2.5"/>
		<path class="st1" d="M32.7,30.2c-0.3-0.3-0.8-0.4-1.2-0.1c-2.5,1.9-6.4,4.1-10.3,4.1c-2.4,0-4.4-1-5.6-2.9
			c-1.2-1.9-1.8-4.6-1.8-8.2c0-3.4,0.6-5.9,1.8-7.5c1.1-1.6,2.6-3.1,4.9-3.2c3.3,0,3.1,2.2,3.3,3.1c0.5,2.4,2,2.9,3.2,2.9
			c0.9,0,1.6-0.3,2-1c0.4-0.6,0.6-1.2,0.6-1.9c0-1.6-1-3-3-4c-1.8-0.9-3.8-1.4-6-1.4c-3.6,0-6.7,1.3-9.3,3.8c-2.6,2.5-4,5.9-4,10
			c0,4,1.2,7.3,3.5,9.7c2.4,2.5,5.7,3.8,9.8,3.8c0.1,0,0.1,0,0.2,0c4.3,0,9.1-2.9,11.9-6C33.1,31.1,33.1,30.5,32.7,30.2L32.7,30.2z"
			/>
	</g>
</g>
</svg>
