<?xml version="1.0" encoding="utf-8"?>
<!-- Generator: Adobe Illustrator 27.8.0, SVG Export Plug-In . SVG Version: 6.00 Build 0)  -->
<svg version="1.1" id="Calque_1" xmlns="http://www.w3.org/2000/svg" xmlns:xlink="http://www.w3.org/1999/xlink" x="0px" y="0px"
	 viewBox="0 0 299.9 92.3" style="enable-background:new 0 0 299.9 92.3;" xml:space="preserve">
<style type="text/css">
	.st0{fill:#FFFFFF;}
</style>
<g>
	<path class="st0" d="M95,31.2c0.2,0,0.3,0,0.5-0.1c3.1-0.7,5.7-1.3,7.7-1.9c5.7-1.6,11.9-4.5,14.7-6c0.3-0.1,1.3-0.8,1.5-1
		c1.5-1.4,2.2-3.3,2-5.4c-0.1-1.3-0.8-2.6-1.8-3.5c-2.1-1.9-5-2.2-7.3-0.8c-0.9,0.4-1.9,1.5-3.3,3c-1.9,2-4.5,4.8-8.3,7.6
		c-1.9,1.4-4.1,2.8-6.6,4.4c-1,0.6-1.2,1.7-0.8,2.5C93.4,30.6,94.1,31.2,95,31.2z"/>
	<path class="st0" d="M279.8,73.8c-1.8,3.6-6.5,8.4-8.6,9.4c-3.6,1.7-7.2,2.6-7.4-0.9v-3.5V0.2l-11.6,5.4v62.3
		c-6.3,6.6-17.6,17-27.1,18c-6.4,0.7-10.6-1.6-13.2-5.3c-1.7-2.7-3-5.3-3.6-8.9c7.8-7.8,19.2-6.9,27-8.5c3.1-0.6,9.4-2,9.5-8.6
		c0.1-11.8-10-20.5-22.4-20.5c-7.5,0-15.4,2.9-20.4,8.5c-5,5.6-7.5,12.7-7.5,21.1c0,5.8,1.2,10.8,3.7,15c-1.3,2.3-2.2,3.2-3,4.2
		c-2.6,3-7.6,2.8-7.7-0.7l0-25.2c0-6-0.4-10.2-1.3-13c-0.9-2.8-2.9-5.2-5.9-7.1c-3-1.9-6.7-2.8-11.2-2.8c-1.2,0-5.6,0.2-10.1,3.2
		c-3.3,2.1-5.8,5-7.6,8.8V0.2l-10.9,5.4v62.5c-6.3,6.6-17.5,16.7-26.9,17.8c-6.4,0.7-10.6-1.6-13.2-5.3c-1.7-2.7-3-5.3-3.6-8.9
		c7.8-7.8,19.2-6.9,27-8.5c3.1-0.6,9.4-2,9.5-8.6c0.1-11.8-10-20.5-22.4-20.5c-7.5,0-15.4,2.9-20.4,8.5c-5,5.6-7.5,12.7-7.5,21.1
		c0,4.5,0.8,8.6,2.2,12.1C80,80,71,85.5,62.2,85.4c-5.2-0.1-9.4-2.2-11.9-6.1c-2.6-4-3.8-9.7-3.8-17.6c0-7.2,1.3-12.6,3.8-16.1
		c2.4-3.3,5.5-6.7,10.5-6.7c7.1,0,6.7,4.8,7.1,6.7c1,5.1,4.2,6.2,6.7,6.2c1.8,0,3.3-0.7,4.3-2.1c0.9-1.2,1.4-2.5,1.4-4
		c0-3.5-2.2-6.3-6.4-8.5c-3.9-2-8.2-3-12.8-3c-7.6,0-14.3,2.7-19.9,8.2c-5.6,5.4-8.4,12.6-8.4,21.2c0,8.5,2.5,15.5,7.4,20.7
		c5,5.3,12,8.1,20.9,8.1c0.1,0,0.2,0,0.3,0c9.3-0.1,19.7-6.4,25.5-13c1.3,2.2,2.9,4.1,4.7,5.7l0,0c5.5,5.3,12.1,7.1,19.8,7.1
		c10.1,0,21.5-9.4,29-18.4v18.6h10.9l0-26.4c0-19,8.5-26.2,15.7-26.5c6.7-0.3,8,4.8,8.5,7l0,0.2c0.5,2,0.7,5.1,0.7,9.3l-0.2,23
		c0,6.3,0.1,13.5,10.2,13.5c6.3,0,10.9-4.2,14.6-9.8c0.8,0.9,1.6,1.8,2.4,2.6l0,0c5.5,5.3,12.1,7.1,19.8,7.1
		c10.2,0,21.7-9.6,29.2-18.7v5.3c0,6.3,0.1,13.5,10.2,13.5c10,0,16.7-6,21.3-16.2C285.5,72.1,280.5,72.3,279.8,73.8z M108.7,39.1
		c8.8-0.5,13.4,5.5,13.6,9.9c0.3,6.1-4.4,8.5-10.1,10.4l0,0c0,0-12.4,4.2-16.3,7.4C95.1,54.1,95.8,39.9,108.7,39.1z M220.3,39.1
		c8.8-0.5,13.4,5.5,13.6,9.9c0.4,6.1-4.4,8.5-10.1,10.4l0,0c0,0-12.4,4.2-16.3,7.4C206.7,54.1,207.3,39.9,220.3,39.1z"/>
	<ellipse transform="matrix(0.3827 -0.9239 0.9239 0.3827 101.6724 325.0104)" class="st0" cx="294" cy="86.4" rx="5.9" ry="5.9"/>
	<g>
		<path class="st0" d="M13.8,66.8c-0.3,1-0.7,1.8-1.2,2.3L11,68.4c0.5-0.5,0.9-1.2,1.1-2.1c0.3-0.8,0.4-1.7,0.4-2.6
			c0-1.2-0.2-2-0.6-2.6c-0.4-0.6-0.9-0.8-1.6-0.8c-0.5,0-0.9,0.2-1.1,0.5c-0.3,0.3-0.5,0.7-0.7,1.2S8.2,63.1,8,64
			c-0.2,1.1-0.5,1.9-0.7,2.5c-0.2,0.7-0.6,1.2-1.1,1.7S4.9,68.9,4,68.9c-0.7,0-1.4-0.2-2-0.6c-0.6-0.4-1.1-1-1.5-1.8
			C0.2,65.8,0,64.8,0,63.6c0-0.8,0.1-1.6,0.3-2.4s0.5-1.5,0.9-2.1l1.6,0.6c-0.4,0.6-0.6,1.2-0.8,1.9c-0.2,0.7-0.3,1.3-0.3,2
			c0,1.1,0.2,2,0.6,2.5c0.4,0.6,1,0.8,1.6,0.8c0.5,0,0.9-0.2,1.2-0.5s0.5-0.7,0.7-1.2s0.3-1.1,0.5-1.9c0.2-1,0.5-1.9,0.7-2.5
			s0.6-1.2,1.1-1.7c0.5-0.5,1.2-0.7,2.1-0.7c0.7,0,1.4,0.2,2,0.6c0.6,0.4,1.1,1,1.5,1.8c0.4,0.8,0.6,1.8,0.6,3
			C14.2,64.8,14.1,65.8,13.8,66.8z"/>
		<path class="st0" d="M3.4,49.8l-1.1,4.6L0.6,54l2.7-11.2L5,43.2l-1.1,4.6l11.8,2.9l-0.5,1.9L3.4,49.8z"/>
		<path class="st0" d="M17.1,42.1c-1.4,0.4-3,0-4.7-1l-6.8-4l1-1.7l6.8,3.9c2.6,1.5,4.5,1.1,5.8-1.1c0.6-1.1,0.8-2.1,0.5-3.1
			c-0.3-1-1.1-1.8-2.4-2.6l-6.8-3.9l1-1.7l6.8,4c1.7,1,2.8,2.2,3.2,3.6c0.4,1.4,0.1,2.9-0.8,4.5S18.5,41.8,17.1,42.1z"/>
		<path class="st0" d="M17.1,20.2l4.4-3.8c1.1-0.9,2.3-1.6,3.5-1.9c1.2-0.3,2.5-0.2,3.6,0.1s2.2,1.1,3.1,2.1c0.9,1,1.4,2.2,1.6,3.4
			s0.1,2.4-0.4,3.6c-0.5,1.2-1.3,2.2-2.4,3.2l-4.5,3.8L17.1,20.2z M29.4,25.7c0.9-0.7,1.5-1.5,1.8-2.4s0.5-1.8,0.3-2.7
			s-0.6-1.7-1.2-2.5c-0.7-0.8-1.4-1.3-2.3-1.6c-0.9-0.3-1.8-0.3-2.7-0.1c-0.9,0.2-1.8,0.7-2.7,1.4l-2.9,2.4l6.8,7.9L29.4,25.7z"/>
		<path class="st0" d="M33.4,8.3l1.8-0.9l6.2,12.4l-1.8,0.9L33.4,8.3z"/>
		<path class="st0" d="M47.7,16.5c-1.2-0.4-2.3-1-3.1-1.9s-1.4-2-1.7-3.4S42.6,8.7,43,7.5c0.4-1.2,1.1-2.2,2-3.1s2.1-1.4,3.5-1.7
			c1.4-0.3,2.7-0.3,3.9,0.1s2.3,1,3.1,1.9s1.4,2,1.7,3.4s0.2,2.6-0.2,3.8c-0.4,1.2-1.1,2.2-2,3.1s-2.1,1.4-3.5,1.7
			C50.2,16.9,48.9,16.9,47.7,16.5z M53.8,13.6c0.7-0.6,1.2-1.4,1.5-2.3c0.3-0.9,0.3-1.8,0.1-2.8c-0.2-1-0.6-1.8-1.3-2.5
			s-1.4-1.2-2.3-1.5S50,4.2,49,4.4s-1.8,0.6-2.6,1.3c-0.7,0.6-1.2,1.4-1.5,2.3c-0.3,0.9-0.3,1.8-0.1,2.8c0.2,1,0.6,1.8,1.3,2.5
			c0.6,0.7,1.4,1.2,2.3,1.5s1.9,0.3,2.8,0.1C52.2,14.7,53.1,14.2,53.8,13.6z"/>
	</g>
</g>
</svg>
