<?xml version="1.0" encoding="utf-8"?>
<!-- Generator: Adobe Illustrator 27.8.0, SVG Export Plug-In . SVG Version: 6.00 Build 0)  -->
<svg version="1.1" id="Calque_1" xmlns="http://www.w3.org/2000/svg" xmlns:xlink="http://www.w3.org/1999/xlink" x="0px" y="0px"
	 viewBox="0 0 299.9 92.35" style="enable-background:new 0 0 299.9 92.35;" xml:space="preserve">
<style type="text/css">
	.st0{fill:#EA4F4F;}
</style>
<g>
	<path class="st0" d="M94.98,31.22c0.16,0,0.32-0.02,0.49-0.06c3.12-0.69,5.71-1.32,7.71-1.88c5.68-1.59,11.9-4.54,14.69-6.04
		c0.28-0.14,1.35-0.8,1.52-1c1.51-1.36,2.21-3.28,1.98-5.42c-0.14-1.33-0.81-2.61-1.82-3.51c-2.12-1.88-5-2.2-7.31-0.83
		c-0.89,0.4-1.92,1.49-3.34,2.99c-1.9,2.01-4.5,4.77-8.34,7.58c-1.87,1.37-4.09,2.84-6.6,4.36c-1.03,0.62-1.16,1.71-0.84,2.51
		C93.4,30.61,94.06,31.22,94.98,31.22z"/>
	<path class="st0" d="M279.78,73.77c-1.8,3.62-6.49,8.36-8.65,9.39c-3.63,1.73-7.25,2.58-7.36-0.91l0-3.48V0.23L252.15,5.6v62.27
		c-6.29,6.56-17.64,16.95-27.12,18.02c-6.38,0.72-10.56-1.55-13.22-5.29c-1.68-2.71-3-5.32-3.56-8.88c7.83-7.76,19.24-6.94,27-8.47
		c3.09-0.61,9.44-1.97,9.48-8.58c0.07-11.78-9.99-20.5-22.42-20.5c-7.5,0-15.39,2.86-20.39,8.49c-4.96,5.6-7.48,12.7-7.48,21.11
		c0,5.79,1.25,10.82,3.7,14.96c-1.31,2.28-2.19,3.21-3.02,4.18c-2.62,3.04-7.59,2.83-7.7-0.66l-0.01-25.18
		c0-5.99-0.43-10.23-1.32-12.95c-0.92-2.83-2.91-5.23-5.92-7.13c-2.97-1.87-6.73-2.82-11.17-2.82c-1.22,0-5.57,0.23-10.13,3.15
		c-3.27,2.1-5.82,5.05-7.61,8.8V0.17l-10.9,5.45v62.48c-6.33,6.57-17.52,16.73-26.89,17.78c-6.38,0.72-10.56-1.55-13.22-5.29
		c-1.68-2.71-3-5.32-3.56-8.88c7.83-7.76,19.24-6.94,27-8.47c3.09-0.61,9.44-1.97,9.48-8.58c0.07-11.78-9.99-20.5-22.42-20.5
		c-7.5,0-15.39,2.86-20.39,8.49c-4.96,5.6-7.48,12.7-7.48,21.11c0,4.51,0.76,8.56,2.25,12.09c-5.14,4.19-14.17,9.66-22.93,9.56
		c-5.15-0.05-9.37-2.23-11.88-6.14c-2.56-3.99-3.81-9.74-3.81-17.58c0-7.2,1.27-12.61,3.78-16.07c2.41-3.32,5.55-6.69,10.45-6.72
		c7.13-0.05,6.69,4.77,7.08,6.68c0.99,5.1,4.21,6.17,6.73,6.17c1.83,0,3.34-0.72,4.35-2.07c0.91-1.21,1.37-2.55,1.37-3.96
		c0-3.45-2.16-6.32-6.42-8.55c-3.87-2.02-8.17-3.05-12.77-3.05c-7.63,0-14.33,2.74-19.92,8.16c-5.6,5.43-8.44,12.58-8.44,21.24
		c0,8.51,2.5,15.49,7.44,20.74c5.04,5.35,12.05,8.07,20.87,8.07c0.12,0,0.24,0,0.35,0c9.28-0.08,19.67-6.4,25.55-13.01
		c1.35,2.15,2.92,4.06,4.68,5.72l-0.02,0.01c5.47,5.27,12.08,7.1,19.8,7.08c10.08-0.02,21.47-9.45,28.96-18.41v18.58h10.9
		l-0.01-26.44c0.01-19.05,8.46-26.2,15.68-26.52c6.72-0.31,7.96,4.81,8.49,7l0.04,0.17c0.48,1.97,0.73,5.1,0.73,9.28l-0.24,22.98
		c0,6.28,0.06,13.54,10.2,13.54c6.31,0,10.92-4.19,14.62-9.84c0.76,0.92,1.56,1.78,2.42,2.59l-0.02,0.01
		c5.47,5.27,12.08,7.1,19.8,7.08c10.19-0.02,21.7-9.64,29.18-18.68v5.31c0,6.28,0.06,13.54,10.2,13.54
		c9.95,0,16.71-6.02,21.29-16.16C285.45,72.15,280.51,72.32,279.78,73.77z M108.73,39.13c8.78-0.52,13.38,5.55,13.63,9.93
		c0.35,6.13-4.43,8.49-10.06,10.41l0,0c0,0-12.43,4.18-16.33,7.4C95.1,54.14,95.78,39.9,108.73,39.13z M220.3,39.13
		c8.78-0.52,13.38,5.55,13.63,9.93c0.35,6.13-4.43,8.49-10.06,10.41l0,0c0,0-12.43,4.18-16.33,7.4
		C206.67,54.14,207.34,39.9,220.3,39.13z"/>
	
		<ellipse transform="matrix(0.3827 -0.9239 0.9239 0.3827 101.6626 325.0097)" class="st0" cx="294.04" cy="86.43" rx="5.86" ry="5.86"/>
	<g>
		<path class="st0" d="M13.78,66.79c-0.31,0.98-0.72,1.75-1.23,2.31l-1.56-0.71c0.47-0.54,0.85-1.22,1.13-2.05
			c0.29-0.83,0.42-1.68,0.41-2.56c-0.02-1.15-0.23-2.01-0.62-2.57c-0.4-0.56-0.92-0.84-1.57-0.83c-0.48,0.01-0.86,0.17-1.15,0.48
			c-0.29,0.32-0.52,0.7-0.67,1.16c-0.15,0.46-0.32,1.11-0.51,1.94c-0.24,1.05-0.48,1.9-0.72,2.54c-0.24,0.65-0.62,1.2-1.14,1.67
			s-1.22,0.7-2.11,0.72c-0.74,0.01-1.41-0.17-2.01-0.56c-0.6-0.38-1.09-0.97-1.46-1.76C0.21,65.79,0.02,64.81,0,63.63
			C-0.01,62.81,0.08,62,0.28,61.2c0.2-0.8,0.49-1.48,0.88-2.06l1.6,0.63c-0.36,0.59-0.63,1.21-0.82,1.88
			c-0.18,0.67-0.27,1.31-0.26,1.95c0.02,1.13,0.23,1.97,0.65,2.52c0.42,0.56,0.95,0.83,1.6,0.82c0.48-0.01,0.86-0.17,1.15-0.49
			c0.29-0.32,0.52-0.72,0.68-1.19c0.16-0.47,0.32-1.11,0.5-1.92c0.24-1.05,0.48-1.89,0.72-2.53c0.24-0.64,0.62-1.19,1.13-1.65
			c0.51-0.46,1.2-0.7,2.07-0.72c0.73-0.01,1.4,0.18,2,0.57c0.61,0.39,1.09,0.98,1.46,1.79c0.36,0.8,0.55,1.79,0.57,2.97
			C14.24,64.8,14.09,65.82,13.78,66.79z"/>
		<path class="st0" d="M3.36,49.77L2.23,54.4l-1.68-0.41l2.73-11.17l1.68,0.41l-1.13,4.63l11.82,2.89l-0.47,1.91L3.36,49.77z"/>
		<path class="st0" d="M17.09,42.12c-1.43,0.36-3.01,0.04-4.73-0.96l-6.83-3.98l1-1.72l6.76,3.94c2.57,1.5,4.52,1.12,5.83-1.13
			c0.64-1.1,0.81-2.12,0.52-3.08c-0.29-0.95-1.09-1.81-2.4-2.57l-6.76-3.94l0.97-1.66L18.28,31c1.73,1.01,2.79,2.22,3.18,3.64
			c0.39,1.42,0.12,2.93-0.81,4.54S18.53,41.76,17.09,42.12z"/>
		<path class="st0" d="M17.12,20.17l4.45-3.8c1.12-0.95,2.3-1.58,3.54-1.88c1.24-0.3,2.45-0.25,3.61,0.14
			c1.16,0.39,2.19,1.11,3.07,2.14c0.89,1.04,1.43,2.16,1.64,3.37c0.21,1.21,0.06,2.4-0.42,3.59c-0.49,1.18-1.29,2.25-2.41,3.21
			l-4.45,3.81L17.12,20.17z M29.39,25.7c0.86-0.73,1.47-1.54,1.83-2.43c0.36-0.89,0.47-1.78,0.31-2.68
			c-0.16-0.9-0.57-1.74-1.25-2.53c-0.67-0.78-1.44-1.33-2.3-1.62c-0.86-0.3-1.76-0.34-2.69-0.11c-0.93,0.22-1.83,0.7-2.68,1.43
			l-2.85,2.44l6.79,7.94L29.39,25.7z"/>
		<path class="st0" d="M33.39,8.35l1.78-0.89l6.21,12.44l-1.78,0.89L33.39,8.35z"/>
		<path class="st0" d="M47.71,16.5c-1.23-0.36-2.27-1.01-3.13-1.93c-0.86-0.92-1.43-2.04-1.71-3.35c-0.28-1.31-0.23-2.56,0.17-3.76
			c0.4-1.2,1.08-2.22,2.05-3.06s2.14-1.41,3.51-1.71c1.36-0.3,2.65-0.26,3.88,0.1c1.23,0.36,2.27,1,3.12,1.92
			c0.85,0.92,1.42,2.04,1.71,3.36c0.29,1.32,0.24,2.57-0.16,3.76c-0.39,1.19-1.07,2.21-2.04,3.05c-0.97,0.84-2.13,1.41-3.49,1.7
			C50.24,16.9,48.94,16.87,47.71,16.5z M53.78,13.61c0.7-0.63,1.19-1.39,1.47-2.28c0.29-0.9,0.32-1.83,0.11-2.82
			c-0.21-0.98-0.64-1.82-1.27-2.52s-1.4-1.18-2.29-1.46c-0.89-0.28-1.84-0.31-2.84-0.09c-1,0.22-1.85,0.64-2.56,1.27
			c-0.71,0.63-1.21,1.39-1.49,2.29c-0.29,0.9-0.32,1.83-0.11,2.82c0.21,0.98,0.64,1.82,1.27,2.52c0.63,0.7,1.4,1.18,2.31,1.46
			c0.91,0.28,1.86,0.31,2.85,0.09C52.23,14.66,53.08,14.23,53.78,13.61z"/>
	</g>
</g>
</svg>
